<svg xmlns="http://www.w3.org/2000/svg" width="1200" height="675" viewBox="0 0 1200 675" role="img" aria-labelledby="title desc">
  <title id="title">CraftEngine Asset Pack Generator UI overview</title>
  <desc id="desc">A clean dashboard mockup showing pack metadata, DeepL settings, image drop zones, and generated entries.</desc>
  <defs>
    <linearGradient id="bg" x1="0" y1="0" x2="1" y2="1">
      <stop offset="0" stop-color="#edf3ef"/>
      <stop offset="1" stop-color="#d8e7df"/>
    </linearGradient>
    <filter id="shadow" x="-20%" y="-20%" width="140%" height="140%">
      <feDropShadow dx="0" dy="18" stdDeviation="18" flood-color="#18231d" flood-opacity=".16"/>
    </filter>
  </defs>
  <rect width="1200" height="675" fill="url(#bg)"/>
  <rect x="64" y="54" width="1072" height="568" rx="18" fill="#ffffff" filter="url(#shadow)"/>
  <rect x="64" y="54" width="286" height="568" rx="18" fill="#f7faf7"/>
  <path d="M350 54v568" stroke="#dce5df"/>
  <circle cx="112" cy="108" r="30" fill="#1f745b"/>
  <path d="M98 108h28M112 94v28" stroke="#fff" stroke-width="6" stroke-linecap="round"/>
  <text x="158" y="104" fill="#17211b" font-family="Segoe UI, Arial, sans-serif" font-size="24" font-weight="700">Asset Pack</text>
  <text x="158" y="131" fill="#607066" font-family="Segoe UI, Arial, sans-serif" font-size="14">CraftEngine generator</text>
  <g font-family="Segoe UI, Arial, sans-serif">
    <rect x="94" y="172" width="226" height="118" rx="10" fill="#fff" stroke="#dce5df"/>
    <text x="114" y="201" fill="#17211b" font-size="16" font-weight="700">Pack info</text>
    <rect x="114" y="219" width="186" height="18" rx="4" fill="#e8eee9"/>
    <rect x="114" y="249" width="145" height="18" rx="4" fill="#e8eee9"/>
    <rect x="94" y="312" width="226" height="118" rx="10" fill="#fff" stroke="#dce5df"/>
    <text x="114" y="341" fill="#17211b" font-size="16" font-weight="700">DeepL</text>
    <rect x="114" y="359" width="186" height="18" rx="4" fill="#e8eee9"/>
    <rect x="114" y="389" width="92" height="26" rx="6" fill="#1f745b"/>
    <text x="129" y="408" fill="#fff" font-size="13" font-weight="700">Translate</text>
    <rect x="94" y="452" width="226" height="118" rx="10" fill="#fff" stroke="#dce5df"/>
    <text x="114" y="481" fill="#17211b" font-size="16" font-weight="700">Export</text>
    <rect x="114" y="499" width="186" height="18" rx="4" fill="#e8eee9"/>
    <rect x="114" y="529" width="130" height="26" rx="6" fill="#d58b2b"/>
    <text x="129" y="548" fill="#fff" font-size="13" font-weight="700">Download zip</text>
  </g>
  <g font-family="Segoe UI, Arial, sans-serif">
    <text x="392" y="102" fill="#17211b" font-size="26" font-weight="800">Drop images, generate CraftEngine assets</text>
    <text x="392" y="132" fill="#64736a" font-size="15">All automation runs in the browser. No database, no server-side image storage.</text>
    <rect x="1016" y="80" width="40" height="40" rx="8" fill="#eef4ef" stroke="#dce5df"/>
    <text x="1028" y="106" fill="#1f745b" font-size="18" font-weight="800">A</text>
    <rect x="1066" y="80" width="40" height="40" rx="8" fill="#eef4ef" stroke="#dce5df"/>
    <text x="1078" y="106" fill="#1f745b" font-size="18" font-weight="800">☼</text>
    <g>
      <rect x="392" y="168" width="166" height="118" rx="12" fill="#fbfdfb" stroke="#a9bbb0" stroke-dasharray="7 7"/>
      <text x="420" y="215" fill="#17211b" font-size="18" font-weight="700">Items</text>
      <text x="420" y="243" fill="#64736a" font-size="13">item textures</text>
      <rect x="420" y="257" width="36" height="22" rx="6" fill="#e8eee9"/>
      <text x="434" y="273" fill="#64736a" font-size="12">12</text>
    </g>
    <g>
      <rect x="584" y="168" width="166" height="118" rx="12" fill="#fbfdfb" stroke="#a9bbb0" stroke-dasharray="7 7"/>
      <text x="612" y="215" fill="#17211b" font-size="18" font-weight="700">Blocks</text>
      <text x="612" y="243" fill="#64736a" font-size="13">block configs</text>
      <rect x="612" y="257" width="36" height="22" rx="6" fill="#e8eee9"/>
      <text x="626" y="273" fill="#64736a" font-size="12">6</text>
    </g>
    <g>
      <rect x="776" y="168" width="166" height="118" rx="12" fill="#fbfdfb" stroke="#a9bbb0" stroke-dasharray="7 7"/>
      <text x="804" y="215" fill="#17211b" font-size="18" font-weight="700">Furniture</text>
      <text x="804" y="243" fill="#64736a" font-size="13">placements</text>
      <rect x="804" y="257" width="36" height="22" rx="6" fill="#e8eee9"/>
      <text x="818" y="273" fill="#64736a" font-size="12">4</text>
    </g>
    <g>
      <rect x="968" y="168" width="120" height="118" rx="12" fill="#fbfdfb" stroke="#a9bbb0" stroke-dasharray="7 7"/>
      <text x="996" y="215" fill="#17211b" font-size="18" font-weight="700">Emoji</text>
      <text x="996" y="243" fill="#64736a" font-size="13">font images</text>
    </g>
    <rect x="392" y="326" width="696" height="224" rx="12" fill="#fff" stroke="#dce5df"/>
    <rect x="392" y="326" width="696" height="50" rx="12" fill="#f0f5f1"/>
    <text x="420" y="358" fill="#17211b" font-size="17" font-weight="700">Entries</text>
    <rect x="934" y="340" width="58" height="24" rx="6" fill="#dfece5"/>
    <text x="952" y="357" fill="#1f745b" font-size="12" font-weight="700">Items</text>
    <rect x="1002" y="340" width="64" height="24" rx="6" fill="#fff" stroke="#dce5df"/>
    <text x="1017" y="357" fill="#64736a" font-size="12" font-weight="700">Blocks</text>
    <g fill="#17211b" font-size="13">
      <text x="420" y="408">Preview</text>
      <text x="520" y="408">ID</text>
      <text x="720" y="408">Display name</text>
    </g>
    <g>
      <rect x="420" y="428" width="42" height="42" rx="8" fill="#93c47d"/>
      <rect x="520" y="434" width="142" height="30" rx="6" fill="#f5f8f5" stroke="#dce5df"/>
      <text x="536" y="454" fill="#17211b" font-size="13">topaz_sword</text>
      <rect x="720" y="434" width="210" height="30" rx="6" fill="#f5f8f5" stroke="#dce5df"/>
      <text x="736" y="454" fill="#17211b" font-size="13">Topaz Sword</text>
    </g>
    <g>
      <rect x="420" y="484" width="42" height="42" rx="8" fill="#6f8199"/>
      <rect x="520" y="490" width="142" height="30" rx="6" fill="#f5f8f5" stroke="#dce5df"/>
      <text x="536" y="510" fill="#17211b" font-size="13">deepslate</text>
      <rect x="720" y="490" width="210" height="30" rx="6" fill="#f5f8f5" stroke="#dce5df"/>
      <text x="736" y="510" fill="#17211b" font-size="13">Deepslate</text>
    </g>
  </g>
</svg>
